{
 "cells": [
  {
   "cell_type": "code",
   "execution_count": 1,
   "metadata": {},
   "outputs": [
    {
     "name": "stderr",
     "output_type": "stream",
     "text": [
      "ffmpeg version 6.0 Copyright (c) 2000-2023 the FFmpeg developers\n",
      "  built with Apple clang version 14.0.3 (clang-1403.0.22.14.1)\n",
      "  configuration: --prefix=/opt/homebrew/Cellar/ffmpeg/6.0_1 --enable-shared --enable-pthreads --enable-version3 --cc=clang --host-cflags= --host-ldflags= --enable-ffplay --enable-gnutls --enable-gpl --enable-libaom --enable-libaribb24 --enable-libbluray --enable-libdav1d --enable-libjxl --enable-libmp3lame --enable-libopus --enable-librav1e --enable-librist --enable-librubberband --enable-libsnappy --enable-libsrt --enable-libsvtav1 --enable-libtesseract --enable-libtheora --enable-libvidstab --enable-libvmaf --enable-libvorbis --enable-libvpx --enable-libwebp --enable-libx264 --enable-libx265 --enable-libxml2 --enable-libxvid --enable-lzma --enable-libfontconfig --enable-libfreetype --enable-frei0r --enable-libass --enable-libopencore-amrnb --enable-libopencore-amrwb --enable-libopenjpeg --enable-libspeex --enable-libsoxr --enable-libzmq --enable-libzimg --disable-libjack --disable-indev=jack --enable-videotoolbox --enable-audiotoolbox --enable-neon\n",
      "  libavutil      58.  2.100 / 58.  2.100\n",
      "  libavcodec     60.  3.100 / 60.  3.100\n",
      "  libavformat    60.  3.100 / 60.  3.100\n",
      "  libavdevice    60.  1.100 / 60.  1.100\n",
      "  libavfilter     9.  3.100 /  9.  3.100\n",
      "  libswscale      7.  1.100 /  7.  1.100\n",
      "  libswresample   4. 10.100 /  4. 10.100\n",
      "  libpostproc    57.  1.100 / 57.  1.100\n",
      "Input #0, mov,mp4,m4a,3gp,3g2,mj2, from './files/podcast.mp4':\n",
      "  Metadata:\n",
      "    major_brand     : mp42\n",
      "    minor_version   : 0\n",
      "    compatible_brands: isommp42\n",
      "    creation_time   : 2023-05-05T21:58:50.000000Z\n",
      "  Duration: 01:13:42.43, start: 0.000000, bitrate: 472 kb/s\n",
      "  Stream #0:0[0x1](und): Video: h264 (Main) (avc1 / 0x31637661), yuv420p(tv, bt709, progressive), 1280x720 [SAR 1:1 DAR 16:9], 341 kb/s, 23.98 fps, 23.98 tbr, 24k tbn (default)\n",
      "    Metadata:\n",
      "      creation_time   : 2023-05-05T21:58:50.000000Z\n",
      "      handler_name    : ISO Media file produced by Google Inc. Created on: 05/05/2023.\n",
      "      vendor_id       : [0][0][0][0]\n",
      "  Stream #0:1[0x2](eng): Audio: aac (LC) (mp4a / 0x6134706D), 44100 Hz, stereo, fltp, 128 kb/s (default)\n",
      "    Metadata:\n",
      "      creation_time   : 2023-05-05T21:58:50.000000Z\n",
      "      handler_name    : ISO Media file produced by Google Inc. Created on: 05/05/2023.\n",
      "      vendor_id       : [0][0][0][0]\n",
      "Stream mapping:\n",
      "  Stream #0:1 -> #0:0 (aac (native) -> mp3 (libmp3lame))\n",
      "Press [q] to stop, [?] for help\n",
      "Output #0, mp3, to './files/podcast.mp3':\n",
      "  Metadata:\n",
      "    major_brand     : mp42\n",
      "    minor_version   : 0\n",
      "    compatible_brands: isommp42\n",
      "    TSSE            : Lavf60.3.100\n",
      "  Stream #0:0(eng): Audio: mp3, 44100 Hz, stereo, fltp (default)\n",
      "    Metadata:\n",
      "      creation_time   : 2023-05-05T21:58:50.000000Z\n",
      "      handler_name    : ISO Media file produced by Google Inc. Created on: 05/05/2023.\n",
      "      vendor_id       : [0][0][0][0]\n",
      "      encoder         : Lavc60.3.100 libmp3lame\n",
      "size=   69101kB time=01:13:42.40 bitrate= 128.0kbits/s speed= 142x       \n",
      "video:0kB audio:69101kB subtitle:0kB other streams:0kB global headers:0kB muxing overhead: 0.000488%\n"
     ]
    }
   ],
   "source": [
    "import subprocess\n",
    "\n",
    "\n",
    "def extract_audio_from_video(video_path, audio_path):\n",
    "    command = [\n",
    "        \"ffmpeg\",\n",
    "        \"-i\",\n",
    "        video_path,\n",
    "        \"-vn\",\n",
    "        audio_path,\n",
    "    ]\n",
    "    subprocess.run(command)\n",
    "\n",
    "\n",
    "extract_audio_from_video(\n",
    "    \"./files/podcast.mp4\",\n",
    "    \"./files/podcast.mp3\",\n",
    ")"
   ]
  }
 ],
 "metadata": {
  "kernelspec": {
   "display_name": "env",
   "language": "python",
   "name": "python3"
  },
  "language_info": {
   "codemirror_mode": {
    "name": "ipython",
    "version": 3
   },
   "file_extension": ".py",
   "mimetype": "text/x-python",
   "name": "python",
   "nbconvert_exporter": "python",
   "pygments_lexer": "ipython3",
   "version": "3.11.6"
  }
 },
 "nbformat": 4,
 "nbformat_minor": 2
}
